<svg xmlns="http://www.w3.org/2000/svg" viewBox="0 0 64 64" xmlns:xlink="http://www.w3.org/1999/xlink" version="1.1">
<g id="surface1">
<path style=" fill:#72CAAF;" d="M 61 11 L 61 53 C 61 54.1016 60.1016 55 59 55 L 5 55 C 3.89844 55 3 54.1016 3 53 L 3 11 C 3 9.89844 3.89844 9 5 9 L 59 9 C 60.1016 9 61 9.89844 61 11 Z" />
<path style=" fill:#5DBC9D;" d="M 61 53 C 61 54.1016 60.1016 55 59 55 L 5 55 C 3.89844 55 3 54.1016 3 53 L 3 50.7695 C 3.53125 50.2891 4.23047 50 5 50 L 58 50 C 59.6602 50 61 51.3398 61 53 Z" />
<path style=" fill:#8D6C9F;" d="M 59 8 L 5 8 C 3.34766 8 2 9.34766 2 11 L 2 53 C 2 54.6523 3.34766 56 5 56 L 59 56 C 60.6523 56 62 54.6523 62 53 L 62 11 C 62 9.34766 60.6523 8 59 8 Z M 60 53 C 60 53.5508 59.5508 54 59 54 L 5 54 C 4.44922 54 4 53.5508 4 53 L 4 11 C 4 10.4492 4.44922 10 5 10 L 59 10 C 59.5508 10 60 10.4492 60 11 Z" />
<path style=" fill:#8D6C9F;" d="M 7 48 C 6.44922 48 6 48.4492 6 49 L 6 51 C 6 51.5508 6.44922 52 7 52 C 7.55078 52 8 51.5508 8 51 L 8 49 C 8 48.4492 7.55078 48 7 48 Z" />
<path style=" fill:#8D6C9F;" d="M 12 48 C 11.4492 48 11 48.4492 11 49 L 11 51 C 11 51.5508 11.4492 52 12 52 C 12.5508 52 13 51.5508 13 51 L 13 49 C 13 48.4492 12.5508 48 12 48 Z" />
<path style=" fill:#8D6C9F;" d="M 17 48 C 16.4492 48 16 48.4492 16 49 L 16 51 C 16 51.5508 16.4492 52 17 52 C 17.5508 52 18 51.5508 18 51 L 18 49 C 18 48.4492 17.5508 48 17 48 Z" />
<path style=" fill:#8D6C9F;" d="M 22 48 C 21.4492 48 21 48.4492 21 49 L 21 51 C 21 51.5508 21.4492 52 22 52 C 22.5508 52 23 51.5508 23 51 L 23 49 C 23 48.4492 22.5508 48 22 48 Z" />
<path style=" fill:#8D6C9F;" d="M 27 48 C 26.4492 48 26 48.4492 26 49 L 26 51 C 26 51.5508 26.4492 52 27 52 C 27.5508 52 28 51.5508 28 51 L 28 49 C 28 48.4492 27.5508 48 27 48 Z" />
<path style=" fill:#8D6C9F;" d="M 32 48 C 31.4492 48 31 48.4492 31 49 L 31 51 C 31 51.5508 31.4492 52 32 52 C 32.5508 52 33 51.5508 33 51 L 33 49 C 33 48.4492 32.5508 48 32 48 Z" />
<path style=" fill:#8D6C9F;" d="M 37 48 C 36.4492 48 36 48.4492 36 49 L 36 51 C 36 51.5508 36.4492 52 37 52 C 37.5508 52 38 51.5508 38 51 L 38 49 C 38 48.4492 37.5508 48 37 48 Z" />
<path style=" fill:#8D6C9F;" d="M 42 48 C 41.4492 48 41 48.4492 41 49 L 41 51 C 41 51.5508 41.4492 52 42 52 C 42.5508 52 43 51.5508 43 51 L 43 49 C 43 48.4492 42.5508 48 42 48 Z" />
<path style=" fill:#8D6C9F;" d="M 47 48 C 46.4492 48 46 48.4492 46 49 L 46 51 C 46 51.5508 46.4492 52 47 52 C 47.5508 52 48 51.5508 48 51 L 48 49 C 48 48.4492 47.5508 48 47 48 Z" />
<path style=" fill:#8D6C9F;" d="M 52 48 C 51.4492 48 51 48.4492 51 49 L 51 51 C 51 51.5508 51.4492 52 52 52 C 52.5508 52 53 51.5508 53 51 L 53 49 C 53 48.4492 52.5508 48 52 48 Z" />
<path style=" fill:#8D6C9F;" d="M 57 48 C 56.4492 48 56 48.4492 56 49 L 56 51 C 56 51.5508 56.4492 52 57 52 C 57.5508 52 58 51.5508 58 51 L 58 49 C 58 48.4492 57.5508 48 57 48 Z" />
<path style=" fill:#FAEFDE;" d="M 50 38 L 48 38 L 48 22 L 50 22 C 50.5547 22 51 21.5547 51 21 C 51 20.4453 50.5547 20 50 20 L 44 20 C 43.4453 20 43 20.4453 43 21 C 43 21.5547 43.4453 22 44 22 L 46 22 L 46 38 L 44 38 C 43.4453 38 43 38.4453 43 39 C 43 39.5547 43.4453 40 44 40 L 50 40 C 50.5547 40 51 39.5547 51 39 C 51 38.4453 50.5547 38 50 38 Z" />
<path style=" fill:#FAEFDE;" d="M 18.332 20.6367 C 18.1875 20.2383 17.8125 19.9688 17.3906 19.9688 C 16.9688 19.9688 16.5898 20.2383 16.4453 20.6367 L 10.0469 38.6367 C 9.86328 39.1563 10.1328 39.7266 10.6523 39.9102 C 10.7656 39.9492 10.8789 39.9688 10.9883 39.9688 C 11.3984 39.9688 11.7852 39.7148 11.9297 39.3047 L 13.832 33.9609 C 13.8516 33.9609 13.8672 33.9688 13.8906 33.9688 L 20.8906 33.9688 C 20.9102 33.9688 20.9258 33.9609 20.9453 33.9609 L 22.8477 39.3047 C 23.0313 39.8242 23.6055 40.0938 24.1211 39.9102 C 24.6445 39.7266 24.9141 39.1563 24.7305 38.6367 Z M 14.5391 31.9688 L 17.3906 23.9531 L 20.2383 31.9688 Z" />
<path style=" fill:#FAEFDE;" d="M 36 20 L 29 20 C 28.4453 20 28 20.4453 28 21 L 28 39 C 28 39.5547 28.4453 40 29 40 C 29.5547 40 30 39.5547 30 39 L 30 32 L 36 32 C 38.207 32 40 30.207 40 28 L 40 24 C 40 21.793 38.207 20 36 20 Z M 38 28 C 38 29.1016 37.1016 30 36 30 L 30 30 L 30 22 L 36 22 C 37.1016 22 38 22.8984 38 24 Z" />
</g>
</svg>