<?xml version="1.0" encoding="UTF-8"?>
<svg xmlns="http://www.w3.org/2000/svg" xmlns:xlink="http://www.w3.org/1999/xlink" viewBox="0 0 64 64" version="1.1" width="64px" height="64px">
<g id="surface1">
<path style=" fill:#C5E4FA;" d="M 59 31 C 59 46.464844 46.464844 59 31 59 C 15.535156 59 3 46.464844 3 31 C 3 15.535156 15.535156 3 31 3 C 46.464844 3 59 15.535156 59 31 Z "/>
<path style=" fill:#E3F2FF;" d="M 12.710938 52.289063 C 15.359375 54.8125 18.480469 56.789063 21.890625 58.109375 L 56 24 L 56 17.570313 C 54.945313 15.820313 53.699219 14.191406 52.289063 12.710938 Z "/>
<path style=" fill:#E3F2FF;" d="M 10.761719 50.238281 L 50 11 L 44 11 L 8.21875 46.78125 C 8.976563 47.996094 9.828125 49.152344 10.761719 50.238281 Z "/>
<path style=" fill:#E3F2FF;" d="M 7.789063 43.210938 L 41 10 L 38 8 L 6.359375 39.640625 C 6.753906 40.863281 7.230469 42.054688 7.789063 43.210938 Z "/>
<path style=" fill:#72CAAF;" d="M 31 3 C 15.535156 3 3 15.535156 3 31 C 3 46.464844 15.535156 59 31 59 C 46.464844 59 59 46.464844 59 31 C 59 15.535156 46.464844 3 31 3 Z M 31 53 C 21.109375 53 12.433594 46.402344 9.792969 36.867188 C 7.15625 27.335938 11.203125 17.214844 19.6875 12.128906 C 28.171875 7.042969 39.007813 8.246094 46.171875 15.070313 L 46.851563 15.738281 C 47.109375 16.007813 47.359375 16.28125 47.601563 16.558594 C 53.257813 23.0625 54.597656 32.273438 51.023438 40.121094 C 47.449219 47.964844 39.621094 53 31 53 Z "/>
<path style=" fill:#66BFA1;" d="M 31 53 C 18.851563 53 9 43.148438 9 31 L 7.339844 31 C 6.152344 30.996094 5.023438 31.519531 4.261719 32.429688 C 3.5 33.339844 3.179688 34.542969 3.390625 35.710938 C 5.675781 49.171875 17.339844 59.023438 30.996094 59.023438 C 44.652344 59.023438 56.3125 49.171875 58.601563 35.710938 C 58.808594 34.542969 58.492188 33.34375 57.730469 32.433594 C 56.972656 31.523438 55.847656 31 54.660156 31 L 53 31 C 53 43.148438 43.148438 53 31 53 Z "/>
<path style=" fill:#8D6C9F;" d="M 31 2 C 14.984375 2 2 14.984375 2 31 C 2 47.015625 14.984375 60 31 60 C 47.015625 60 60 47.015625 60 31 C 60 14.984375 47.015625 2 31 2 Z M 31 58 C 16.089844 58 4 45.910156 4 31 C 4 16.089844 16.089844 4 31 4 C 45.910156 4 58 16.089844 58 31 C 58 45.910156 45.910156 58 31 58 Z "/>
<path style=" fill:#ED7899;" d="M 31 18 C 31.550781 18 32 17.550781 32 17 L 32 15 C 32 14.449219 31.550781 14 31 14 C 30.449219 14 30 14.449219 30 15 L 30 17 C 30 17.550781 30.449219 18 31 18 Z "/>
<path style=" fill:#8D6C9F;" d="M 15 30 C 14.449219 30 14 30.449219 14 31 C 14 31.550781 14.449219 32 15 32 L 17 32 C 17.550781 32 18 31.550781 18 31 C 18 30.449219 17.550781 30 17 30 Z "/>
<path style=" fill:#ED7899;" d="M 48 31 C 48 30.449219 47.550781 30 47 30 L 45 30 C 44.449219 30 44 30.449219 44 31 C 44 31.550781 44.449219 32 45 32 L 47 32 C 47.550781 32 48 31.550781 48 31 Z "/>
<path style=" fill:#8D6C9F;" d="M 30 45 L 30 47 C 30 47.550781 30.449219 48 31 48 C 31.550781 48 32 47.550781 32 47 L 32 45 C 32 44.449219 31.550781 44 31 44 C 30.449219 44 30 44.449219 30 45 Z "/>
<path style=" fill:#ED7899;" d="M 35.871094 18.949219 C 36.378906 19.15625 36.960938 18.910156 37.171875 18.398438 L 37.921875 16.550781 C 38.089844 16.050781 37.835938 15.503906 37.347656 15.304688 C 36.859375 15.105469 36.296875 15.324219 36.070313 15.800781 L 35.320313 17.648438 C 35.113281 18.160156 35.359375 18.742188 35.871094 18.949219 Z "/>
<path style=" fill:#ED7899;" d="M 45.460938 37.921875 C 45.960938 38.089844 46.507813 37.835938 46.703125 37.347656 C 46.902344 36.859375 46.6875 36.296875 46.210938 36.070313 L 44.359375 35.320313 C 43.859375 35.152344 43.3125 35.402344 43.113281 35.890625 C 42.917969 36.382813 43.132813 36.941406 43.609375 37.171875 Z "/>
<path style=" fill:#ED7899;" d="M 40 20.230469 C 39.617188 20.628906 39.628906 21.261719 40.023438 21.644531 C 40.421875 22.027344 41.054688 22.019531 41.441406 21.621094 L 42.828125 20.179688 C 43.140625 19.777344 43.097656 19.203125 42.730469 18.851563 C 42.363281 18.5 41.792969 18.476563 41.398438 18.800781 Z "/>
<path style=" fill:#ED7899;" d="M 41.769531 40 C 41.378906 39.613281 40.75 39.613281 40.359375 40 C 40.21875 40.15625 40.132813 40.351563 40.109375 40.558594 C 39.933594 40.9375 40.011719 41.382813 40.300781 41.679688 L 41.609375 43 C 41.996094 43.375 42.613281 43.375 43 43 C 43.039063 42.90625 43.113281 42.828125 43.210938 42.789063 C 43.597656 42.398438 43.597656 41.769531 43.210938 41.378906 Z "/>
<path style=" fill:#ED7899;" d="M 45.210938 23.578125 L 43.378906 24.390625 C 42.875 24.613281 42.644531 25.203125 42.871094 25.710938 C 43.09375 26.214844 43.683594 26.445313 44.191406 26.21875 L 46 25.410156 C 46.503906 25.1875 46.734375 24.59375 46.511719 24.089844 C 46.285156 23.585938 45.695313 23.355469 45.191406 23.578125 Z "/>
<path style=" fill:#8D6C9F;" d="M 38.5 39.5 C 38.90625 39.503906 39.273438 39.257813 39.429688 38.882813 C 39.585938 38.507813 39.5 38.074219 39.210938 37.789063 L 32.929688 31.511719 C 33.175781 30.640625 32.792969 29.714844 32 29.28125 L 32 21 C 32 20.449219 31.550781 20 31 20 C 30.449219 20 30 20.449219 30 21 L 30 29.28125 C 29.164063 29.792969 28.824219 30.839844 29.199219 31.75 C 29.574219 32.65625 30.554688 33.15625 31.511719 32.929688 L 37.789063 39.210938 C 37.980469 39.398438 38.234375 39.5 38.5 39.5 Z "/>
<path style=" fill:#8D6C9F;" d="M 31 54 C 22.390625 53.984375 14.511719 49.160156 10.582031 41.5 C 6.652344 33.839844 7.328125 24.628906 12.335938 17.625 C 17.34375 10.621094 25.839844 7 34.359375 8.238281 C 34.914063 8.320313 35.296875 8.832031 35.214844 9.386719 C 35.136719 9.9375 34.621094 10.320313 34.070313 10.238281 C 33.054688 10.085938 32.027344 10.003906 31 10 C 20.746094 10.015625 12.003906 17.433594 10.320313 27.546875 C 8.636719 37.660156 14.5 47.511719 24.191406 50.855469 C 33.886719 54.195313 44.574219 50.046875 49.476563 41.042969 C 54.382813 32.039063 52.066406 20.808594 44 14.480469 C 43.566406 14.136719 43.492188 13.507813 43.835938 13.074219 C 44.175781 12.640625 44.804688 12.566406 45.238281 12.910156 C 52.957031 18.96875 55.980469 29.257813 52.769531 38.53125 C 49.554688 47.804688 40.8125 54.015625 31 54 Z "/>
<path style=" fill:#8D6C9F;" d="M 41 12.398438 C 40.84375 12.398438 40.6875 12.363281 40.550781 12.289063 C 39.800781 11.910156 39.03125 11.578125 38.238281 11.289063 C 37.722656 11.097656 37.453125 10.523438 37.644531 10.003906 C 37.835938 9.484375 38.410156 9.21875 38.929688 9.410156 C 39.792969 9.730469 40.640625 10.101563 41.460938 10.519531 C 41.859375 10.734375 42.066406 11.195313 41.957031 11.636719 C 41.847656 12.078125 41.457031 12.394531 41 12.398438 Z "/>
</g>
</svg>
