<svg xmlns="http://www.w3.org/2000/svg" viewBox="0 0 64 64" xmlns:xlink="http://www.w3.org/1999/xlink" version="1.1">
<g id="surface1">
<path style=" fill:#ACE3FF;" d="M 59 33 C 59 48.4648 46.4648 61 31 61 C 15.5352 61 3 48.4648 3 33 C 3 17.5352 15.5352 5 31 5 C 46.4648 5 59 17.5352 59 33 Z" />
<path style=" fill:#85CBF8;" d="M 31 55 C 18.8516 55 9 45.1484 9 33 C 9 20.8516 18.8516 11 31 11 C 43.1484 11 53 20.8516 53 33 C 53 45.1484 43.1484 55 31 55 Z" />
<path style=" fill:#FAEFDE;" d="M 7 21 L 15 21 L 24.1094 44.5586 L 29.7813 31.4492 L 25.7813 21.3398 L 34.6719 20.8984 L 43.1094 44.4609 L 48.1094 31.4609 L 46.5508 25.3516 L 44.6602 20.1289 C 44.6602 20.1289 45.4414 15.5703 47.5508 15.5703 C 49.6602 15.5703 53.2188 15 54.1094 17 C 55 19 54.8906 22.8906 53.5508 27.1094 C 52.2109 31.3281 41.2188 58.6719 41.2188 58.6719 L 40.3281 58.7813 L 31.5586 36 L 22.1094 59.3281 L 21.1094 59 Z" />
<path style=" fill:#8D6C9F;" d="M 55 16.7813 C 54.9297 16.6289 54.8477 16.4805 54.7617 16.3398 C 54.5742 16.0586 54.3594 15.7969 54.1211 15.5586 C 48.1484 7.65625 38.5547 3.35156 28.6797 4.13672 C 18.8047 4.92578 10.0156 10.6992 5.37109 19.4492 L 5.32031 19.5508 C 1.42969 26.9922 0.957031 35.7578 4.02734 43.5781 C 7.09766 51.3945 13.4063 57.5 21.3203 60.3086 L 21.4414 60.3086 C 33.2109 64.3672 46.2539 60.457 53.8555 50.5977 C 61.457 40.7383 61.918 27.1289 55 16.7813 Z M 49.5 35.4414 L 40.9297 57.4414 L 32.3594 35.4414 C 32.3242 35.3672 32.2813 35.3008 32.2305 35.2383 C 32.1875 35.1328 32.1055 35.0469 32 35 C 31.9414 34.9531 31.8789 34.9141 31.8086 34.8789 C 31.7617 34.875 31.7109 34.875 31.6602 34.8789 C 31.5195 34.8281 31.3633 34.8281 31.2188 34.8789 C 31.1719 34.875 31.125 34.875 31.0781 34.8789 C 31.0078 34.9141 30.9414 34.957 30.8789 35.0117 C 30.7891 35.0547 30.7109 35.1289 30.6719 35.2188 C 30.6172 35.2813 30.5742 35.3477 30.5391 35.4219 L 21.9688 57.4219 L 8.12891 22 L 14.3086 22 L 23.3086 45.5195 L 23.3086 45.6016 C 23.3516 45.6758 23.4023 45.7461 23.4609 45.8086 L 23.5391 45.8906 C 23.6055 45.9453 23.6797 45.9922 23.7617 46.0313 L 23.8203 46.0313 C 24.0313 46.1133 24.2695 46.1133 24.4805 46.0313 L 24.5391 46.0313 C 24.6211 45.9922 24.6992 45.9453 24.7695 45.8906 L 24.8516 45.8086 C 24.9102 45.7461 24.9609 45.6758 25 45.6016 L 25 45.5195 L 30.4102 31.6484 L 30.4102 31.6016 C 30.4102 31.6016 30.4102 31.5391 30.4102 31.5195 C 30.4648 31.3633 30.4648 31.1953 30.4102 31.0391 C 30.4141 30.9883 30.4141 30.9336 30.4102 30.8789 L 27.1289 22 L 33.3086 22 L 42.3086 45.5195 L 42.3086 45.6016 C 42.3516 45.6758 42.4023 45.7461 42.4609 45.8086 L 42.5391 45.8906 C 42.6055 45.9453 42.6797 45.9922 42.7617 46.0313 L 42.8203 46.0313 C 42.9258 46.0703 43.0391 46.0898 43.1484 46.0898 L 43.3008 46.0898 C 43.3672 46.0977 43.4336 46.0977 43.5 46.0898 C 43.6055 46.0742 43.707 46.0469 43.8008 46 C 43.8984 45.9531 43.9727 45.875 44.0195 45.7813 C 44.0703 45.7227 44.1133 45.6563 44.1484 45.5898 L 48.8008 33.6406 C 49.8711 30.1211 48.5313 27.5 47.3516 25.1914 C 46.3516 23.1914 45.4805 21.5391 45.9492 19.4414 C 46.2539 17.6719 47.6484 16.2891 49.4219 16 C 50.5703 15.7578 51.7656 16.0703 52.6484 16.8398 C 52.8516 17.1094 53.0508 17.3906 53.2383 17.6719 C 54.7305 20.9102 51.8008 30.1484 49.5 35.4414 Z M 31 6 C 38.1953 6 45.0938 8.88281 50.1484 14 C 49.7891 14 49.4258 14.0313 49.0703 14.0898 C 46.5234 14.5156 44.5078 16.4688 44 19 C 43.3711 21.8086 44.4883 24 45.5703 26.0898 C 46.6484 28.1797 47.7305 30.3008 46.9102 32.9688 L 43.2188 42.4297 L 35.4492 22 L 37 22 C 37.5508 22 38 21.5508 38 21 C 38 20.4492 37.5508 20 37 20 L 23 20 C 22.4492 20 22 20.4492 22 21 C 22 21.5508 22.4492 22 23 22 L 25 22 L 28.6016 31.2383 L 24.2383 42.3906 L 16.4492 22 L 19 22 C 19.5508 22 20 21.5508 20 21 C 20 20.4492 19.5508 20 19 20 L 7.35156 20 C 12.0898 11.3711 21.1523 6.00391 31 6 Z M 4 33 C 3.99609 29.3711 4.72656 25.7773 6.14844 22.4414 L 19.8516 57.5781 C 10.2031 53.207 4.00391 43.5938 4 33 Z M 23.5 58.9297 L 31.4414 38.5586 L 39.2891 58.6914 C 34.168 60.3477 28.668 60.4297 23.5 58.9297 Z M 43.2305 57.0586 L 51.3594 36.1992 C 51.8398 35.0898 55.0117 27.6211 55.5703 21.8008 C 61.5625 34.9648 56.1172 50.5117 43.2188 57.0586 Z" />
<path style=" fill:#8D6C9F;" d="M 31 13 C 31.5508 13 32 12.5508 32 12 L 32 10 C 32 9.44922 31.5508 9 31 9 C 30.4492 9 30 9.44922 30 10 L 30 12 C 30 12.5508 30.4492 13 31 13 Z" />
<path style=" fill:#8D6C9F;" d="M 25 12.9219 C 25.082 13.2773 25.3516 13.5586 25.707 13.6563 C 26.0586 13.7539 26.4336 13.6523 26.6914 13.3906 C 26.9453 13.1289 27.0391 12.75 26.9297 12.3984 L 26.4102 10.4688 C 26.2539 9.95313 25.7148 9.65625 25.1953 9.79688 C 24.6719 9.9375 24.3594 10.4648 24.4805 10.9883 Z" />
<path style=" fill:#8D6C9F;" d="M 40.2617 15.4805 C 40.4922 15.6133 40.7656 15.6484 41.0234 15.582 C 41.2773 15.5117 41.5 15.3398 41.6289 15.1094 L 42.6289 13.3789 C 42.8281 13.0703 42.8398 12.6758 42.6602 12.3555 C 42.4805 12.0352 42.1406 11.8398 41.7734 11.8438 C 41.4063 11.8477 41.0703 12.0547 40.8984 12.3789 L 39.8984 14.1094 C 39.7656 14.3398 39.7266 14.6133 39.7969 14.8711 C 39.8633 15.125 40.0313 15.3477 40.2617 15.4805 Z" />
<path style=" fill:#8D6C9F;" d="M 20.3984 15.1094 C 20.6875 15.5625 21.2813 15.707 21.7461 15.4375 C 22.207 15.1719 22.3789 14.5859 22.1289 14.1094 L 21.1289 12.3789 C 20.8438 11.9297 20.25 11.7813 19.7852 12.0508 C 19.3203 12.3203 19.1523 12.9063 19.3984 13.3789 Z" />
<path style=" fill:#8D6C9F;" d="M 35.8008 13.6289 C 36.3281 13.7578 36.8594 13.4414 37 12.9219 L 37.5391 11 C 37.6641 10.4766 37.3477 9.94922 36.8281 9.80859 C 36.3047 9.66797 35.7695 9.96484 35.6094 10.4805 L 35.0898 12.4102 C 34.9492 12.9414 35.2695 13.4883 35.8008 13.6289 Z" />
</g>
</svg>